<svg xmlns="http://www.w3.org/2000/svg" width="24" height="24" viewBox="0 0 24 24">
    <g fill="none" fill-rule="evenodd">
        <g>
            <g>
                <g>
                    <path d="M0 24L24 24 24 0 0 0z" transform="translate(-722 -8) translate(710) translate(12 8)"/>
                    <path stroke="#000" d="M21.5 11v8.5H18v-2h2H4h2v2H2.5V11l2.186-5.193C5.039 5.012 5.827 4.5 6.696 4.5h10.608c.869 0 1.657.512 2.01 1.307L21.5 11zM15 14.5H9m14-5H6m15.5 3H19L17 14M2.5 12.5H5L7 14M1 9.5h1.92" transform="translate(-722 -8) translate(710) translate(12 8)"/>
                </g>
            </g>
        </g>
    </g>
</svg>
