<svg width="24" height="24" viewBox="0 0 24 24" fill="none" xmlns="http://www.w3.org/2000/svg">
<path fill-rule="evenodd" clip-rule="evenodd" d="M4.5 4C3.67157 4 3 4.67157 3 5.5V6H19V5.5C19 4.67157 18.3284 4 17.5 4H4.5ZM19 7H3V13.5C3 14.3284 3.67157 15 4.5 15H7.53523C8.22691 13.8045 9.51962 13 11 13C11.7279 13 12.4113 13.1949 12.9999 13.5353C13.5883 13.1949 14.2714 13 15 13C15.7279 13 16.4113 13.1949 16.9999 13.5353C17.5883 13.1949 18.2714 13 19 13V7ZM20 13.126V5.5C20 4.11929 18.8807 3 17.5 3H4.5C3.11929 3 2 4.11929 2 5.5V13.5C2 14.8807 3.11929 16 4.5 16H7.12605C7.04377 16.3196 7 16.6547 7 17C7 19.2089 8.79108 21 11 21C11.7279 21 12.4113 20.8051 12.9999 20.4647C13.5883 20.8051 14.2714 21 15 21C15.7279 21 16.4113 20.8051 16.9999 20.4647C17.5883 20.8051 18.2714 21 19 21C21.2089 21 23 19.2089 23 17C23 15.1364 21.7251 13.5702 20 13.126ZM16.1258 19.7817C15.4289 19.0618 15 18.0809 15 17C15 15.9191 15.4289 14.9382 16.1258 14.2183C15.7784 14.0775 15.3985 14 15 14C13.3434 14 12 15.3434 12 17C12 18.6566 13.3434 20 15 20C15.3985 20 15.7784 19.9225 16.1258 19.7817ZM12.1258 19.7817C11.4289 19.0618 11 18.0809 11 17C11 15.9191 11.4289 14.9382 12.1258 14.2183C11.7784 14.0775 11.3985 14 11 14C9.34336 14 8 15.3434 8 17C8 18.6566 9.34336 20 11 20C11.3985 20 11.7784 19.9225 12.1258 19.7817ZM10.0002 10H5.0002V9H10.0002V10ZM10.0002 12H5.0002V11H10.0002V12ZM19 14C17.3434 14 16 15.3434 16 17C16 18.6566 17.3434 20 19 20C20.6566 20 22 18.6566 22 17C22 15.3434 20.6566 14 19 14Z" fill="black"/>
</svg>
