<svg width="32" height="32" viewBox="0 0 32 32" fill="none" xmlns="http://www.w3.org/2000/svg">
<path d="M17.1118 11.8402H9.86536V19.9697H17.1118V11.8402Z" fill="#1C1C1E"/>
<path d="M5.72804 17.1812H7.11372L6.76485 16.3915L6.41598 15.6017L5.72804 17.1812ZM28.9374 14.3778H27.4009V19.4238H25.7092V14.3778H24.0658V12.8933H28.787C28.4982 10.7415 27.902 8.71458 26.901 7.04853C26.8916 7.03244 26.883 7.01597 26.8736 6.99988C24.1912 2.45684 16.8941 1.66615 10.5754 5.23346C4.92257 8.42458 1.96827 14.0223 3.32808 18.4193L5.98778 12.8933H6.86338L9.86587 19.1901V19.4234H8.05983L7.66767 18.6105H5.16429L4.78193 19.4234H3.72534C3.80683 19.5908 3.89458 19.7559 3.99056 19.9184C3.99997 19.9344 4.01015 19.9502 4.01995 19.9662C7.2097 25.4624 15.9766 29.2136 21.3681 29.961C21.3661 29.9664 21.3701 29.9556 21.3681 29.961C22.5085 30.0958 23.7014 29.884 24.7729 29.2795C25.8444 28.6746 26.6283 27.7701 27.0792 26.7373C27.0734 26.7362 27.0847 26.7385 27.0792 26.7373C28.3497 23.6515 29.2508 18.866 28.9374 14.3778ZM16.4977 19.4238H14.5196L13.0576 16.9012C12.9557 16.9138 12.8221 16.9215 12.656 16.9245C12.4903 16.9272 12.3469 16.9291 12.2263 16.9291V19.4242H10.4774V12.8933H12.2263V15.4427C12.3661 15.4427 12.5334 15.4412 12.7277 15.4381C12.922 15.4351 13.0795 15.4025 13.2006 15.3401C13.3538 15.265 13.4681 15.1236 13.5449 14.9148C13.6209 14.7064 13.7071 14.4053 13.8027 14.0131C13.8536 13.8139 13.9351 13.6284 14.0464 13.4572C14.1577 13.286 14.3093 13.1458 14.5001 13.0366C14.6912 12.9282 14.9267 12.8558 15.2072 12.8217C15.4873 12.7876 15.825 12.8109 16.2203 12.8921V14.041C16.0099 14.0284 15.8348 14.0537 15.6945 14.1157C15.5543 14.1782 15.4587 14.3088 15.4078 14.508C15.2997 14.9007 15.1813 15.2389 15.054 15.522C14.9267 15.8055 14.7704 16.0469 14.5855 16.2461C14.9106 16.7322 15.2291 17.2195 15.5414 17.7083C15.8536 18.1975 16.1721 18.6852 16.4969 19.171V19.4238H16.4977ZM23.1675 19.4238H21.4186V16.0503L17.9021 19.4422H17.3858V12.8933H19.1346V16.0783L22.5806 12.8933H23.1671V19.4238H23.1675Z" fill="#7F7F7F"/>
<path d="M3.32764 18.4193L5.98734 12.8933H6.86294L9.86543 19.1901V19.4234H8.05939L7.66723 18.6105H5.16385L4.78149 19.4234H3.7249C3.7249 19.4238 3.58778 19.1484 3.32764 18.4193Z" fill="#1C1C1E"/>
<path d="M5.72791 17.1811L6.41584 15.6021L7.11358 17.1811H5.72791Z" fill="#7F7F7F"/>
<path d="M17.3862 19.4426V12.8933H19.1351V16.0783L22.581 12.8933H23.1675V19.4238H21.4187V16.0507L17.9026 19.4426H17.3862Z" fill="#1C1C1E"/>
<path d="M27.4009 19.4238H25.7093V14.3778H24.0658V12.8933H28.787C28.787 12.8933 28.8496 13.2806 28.9378 14.3778H27.4013V19.4238H27.4009Z" fill="#1C1C1E"/>
</svg>
