<?xml version="1.0" encoding="UTF-8"?>
<svg width="72px" height="48px" viewBox="0 0 72 48" version="1.1" xmlns="http://www.w3.org/2000/svg" xmlns:xlink="http://www.w3.org/1999/xlink">
    <!-- Generator: Sketch 64 (93537) - https://sketch.com -->
    <title>lamodaxtinkoff unactive</title>
    <desc>Created with Sketch.</desc>
    <g id="ALL" stroke="none" stroke-width="1" fill="none" fill-rule="evenodd">
        <g id="Our-partners" transform="translate(-349.000000, -155.000000)">
            <g id="Partners">
                <g id="lamodaxtinkoff-unactive" transform="translate(349.000000, 155.000000)">
                    <rect id="Rectangle" fill="#969696" fill-rule="nonzero" x="0" y="0" width="72" height="48" rx="6"></rect>
                    <g id="head/Lamoda-New-logo-head-2019" transform="translate(8.000000, 8.000000)" fill="#DDDDDD" fill-rule="nonzero">
                        <g id="Fill-1">
                            <path d="M44.5211067,8.93113521 L44.5211067,9.62777751 L46.3949417,9.62777751 L46.3949417,0.0825578907 L44.4094312,0.0825578907 L44.4094312,3.125762 L44.1364046,3.125762 C43.8386032,2.73461676 43.1684242,2.22128508 42.150894,2.22128508 C39.9171318,2.22128508 38.3907737,3.89572856 38.3907737,6.0345796 C38.3907737,8.17343064 39.9171318,9.8355502 42.150894,9.8355502 C43.1684242,9.8355502 43.9626661,9.32221852 44.2480173,8.93113521 L44.5211067,8.93113521 Z M33.0298448,2.22128508 C30.5479566,2.22128508 29.0091482,3.89572856 29.0091482,6.0345796 C29.0091482,8.17343064 30.5479566,9.8355502 33.0298448,9.8355502 C35.5117959,9.8355502 37.0505415,8.17343064 37.0505415,6.0345796 C37.0505415,3.89572856 35.5117959,2.22128508 33.0298448,2.22128508 L33.0298448,2.22128508 Z M54.1261461,8.93113521 L54.1261461,9.62777751 L55.9999811,9.62777751 L55.9999811,2.42911969 L54.1261461,2.42911969 L54.1261461,3.125762 L53.8530567,3.125762 C53.5552552,2.73461676 52.7983013,2.22128508 51.7806454,2.22128508 C49.5470089,2.22128508 48.0205251,3.89572856 48.0205251,6.0345796 C48.0205251,8.17343064 49.5470089,9.8355502 51.7806454,9.8355502 C52.7983013,9.8355502 53.5552552,9.32221852 53.8530567,8.93113521 L54.1261461,8.93113521 Z M1.21935728,6.17977528e-06 L-1.88552189e-05,9.61365764 L1.99140247,9.85419091 L3.19153721,0.238433852 L1.21935728,6.17977528e-06 Z M33.0298448,8.00232008 C31.5283245,8.00232008 31.0319468,7.51338853 31.0319468,6.0345796 C31.0319468,4.55570874 31.5283245,4.05457712 33.0298448,4.05457712 C34.5314281,4.05457712 35.0277428,4.55570874 35.0277428,6.0345796 C35.0277428,7.51338853 34.5314281,8.00232008 33.0298448,8.00232008 L33.0298448,8.00232008 Z M42.4114703,8.00232008 C40.909887,8.00232008 40.4135094,7.51338853 40.4135094,6.0345796 C40.4135094,4.55570874 40.909887,4.05457712 42.4114703,4.05457712 C43.9129906,4.05457712 44.4094312,4.55570874 44.4094312,6.0345796 C44.4094312,7.51338853 43.9129906,8.00232008 42.4114703,8.00232008 L42.4114703,8.00232008 Z M52.0413474,8.00232008 C50.5397642,8.00232008 50.0433237,7.51338853 50.0433237,6.0345796 C50.0433237,4.55570874 50.5397642,4.05457712 52.0413474,4.05457712 C53.5428678,4.05457712 54.0391826,4.55570874 54.0391826,6.0345796 C54.0391826,7.51338853 53.5428678,8.00232008 52.0413474,8.00232008 L52.0413474,8.00232008 Z M9.6775845,10.1129314 L9.59068383,10.7729116 L11.463387,11.0000062 L12.3510063,3.86680759 L10.4786175,3.64088963 L10.3914653,4.33202023 L10.1750311,4.33202023 C9.89458466,3.84414148 9.14398168,3.18317043 7.72923624,3.18317043 C5.7561131,3.18317043 4.30426824,4.61305524 4.04356622,6.56865759 C4.01879136,6.76416828 4.00640393,6.95967897 4.00640393,7.14298959 C4.00640393,9.01294377 5.29696064,10.5529388 7.30730895,10.7729116 C7.41904737,10.7851736 7.53066003,10.7851736 7.64239845,10.7851736 C8.48625301,10.7851736 9.11920682,10.4307524 9.44172024,10.1129314 L9.6775845,10.1129314 Z M6.513067,8.59739839 C6.15320264,8.34076352 5.99191449,7.96188027 5.99191449,7.38748633 C5.99191449,6.6664439 6.21532845,5.77416704 6.58758024,5.39528379 C6.84815649,5.13871084 7.22047116,5.01646247 7.72923624,5.01646247 C8.44902783,5.01646247 9.33010758,5.1997731 9.70235937,5.57859442 C9.95054819,5.82309116 10.0622866,6.16531228 10.0622866,6.64191991 C10.0622866,7.32636215 9.8637104,8.29190133 9.4293328,8.69512278 C9.18114398,8.91521939 8.84611737,9.01294377 8.37451459,9.01294377 C7.7299908,9.01294377 6.9208462,8.86518054 6.513067,8.59739839 L6.513067,8.59739839 Z M25.3979285,9.62777751 L27.4083397,9.62777751 L27.4083397,5.53350991 C27.4083397,3.37019681 26.0060446,2.22128508 24.3183355,2.22128508 C23.2014543,2.22128508 22.3575998,2.69801656 21.7495466,3.35793481 L21.47652,3.35793481 C21.0174304,2.77134081 20.2231885,2.22128508 19.0442444,2.22128508 C17.9770388,2.22128508 17.1207968,2.68575457 16.6740318,3.22348638 L16.4010681,3.22348638 L16.4010681,2.42911969 L14.5271702,2.42911969 L14.5271702,9.62777751 L16.525131,9.62777751 L16.525131,5.86346904 C16.525131,4.5801708 16.9098332,4.1402253 18.2501282,4.1402253 C19.5902976,4.1402253 19.9626122,4.5801708 19.9626122,5.86346904 L19.9626122,9.62777751 L21.9728977,9.62777751 L21.9728977,5.86346904 C21.9728977,4.5801708 22.3452123,4.1402253 23.6854446,4.1402253 C25.0256768,4.1402253 25.3979285,4.5801708 25.3979285,5.86346904 L25.3979285,9.62777751 Z" id="Shape"></path>
                        </g>
                    </g>
                    <g id="Group-16" transform="translate(44.000000, 28.000000)" fill-rule="nonzero">
                        <circle id="Oval" fill="#666666" cx="6" cy="6" r="6"></circle>
                        <circle id="Oval" fill="#868686" cx="14" cy="6" r="6"></circle>
                        <path d="M10.0008689,1.52856479 C11.2278632,2.62718157 12,4.22341969 12,6 C12,7.77658031 11.2278632,9.37281843 10.0008689,10.4714352 C8.77255645,9.37368593 8,7.77706308 8,6 C8,4.26783419 8.7340125,2.70710619 9.90796437,1.61188914 L10.0008689,1.52856479 Z" id="Combined-Shape" fill="#747474"></path>
                    </g>
                    <g id="Group-17" transform="translate(6.000000, 26.000000)">
                        <rect id="Rectangle" x="0" y="0" width="16" height="16"></rect>
                        <g id="EMVCoContactlessIndicator" stroke-linecap="round" transform="translate(3.000000, 1.000000)" stroke="#DDDDDD">
                            <path d="M8.32,0 C10.6422263,4.022214 10.6422263,8.977786 8.32,13 M5.46,1.43 C7.27133654,4.56732692 7.27133654,8.43267308 5.46,11.57 M2.73,2.743 C4.03973565,5.03566198 4.03973565,7.86033802 2.73,10.153 M-2.77555756e-17,4.16 C0.946202363,5.59202171 0.946202363,7.40797829 -2.77555756e-17,8.84" id="Shape"></path>
                        </g>
                    </g>
                </g>
            </g>
        </g>
    </g>
</svg>